<svg xmlns="http://www.w3.org/2000/svg" width="148.434" height="54.526" viewBox="0 0 148.434 54.526">
  <g id="Group_564" data-name="Group 564" transform="translate(-140 -20)">
    <path id="Path_1" data-name="Path 1" d="M159.3,181.953q.059,6.023-7.536,6.022H127.639v-7.551h21.269V178.06H135.417q-8.328,0-8.327-6.022v-3.658c0-3.986,2.754-5.979,12.612-5.979h19.6v7.551H137.544v2.321h14.221q7.658-.086,7.536,6.022Z" transform="translate(12.91 -128.191)" fill="#fff"/>
    <path id="Path_2" data-name="Path 2" d="M324.151,154.934q-8.69,0-8.691-5.63V121.81h10.514v7.549h3.707l4.406,7.551h-8.113V145.9q0,1.484,1.581,1.484h2.066v7.551h-5.47Z" transform="translate(-140.426 -95.15)" fill="#fff"/>
    <path id="Path_3" data-name="Path 3" d="M443.13,162.17l-17.5,34.913h-9.937l5.025-10.867L408.46,162.17h10.333l6.945,14.533L432.8,162.17Z" transform="translate(-216.129 -128.003)" fill="#fff"/>
    <path id="Path_4" data-name="Path 4" d="M677.91,212.851V196.484l5.33-3.524,5.183,3.524v16.367Z" transform="translate(-435.465 -153.067)" fill="#fff"/>
    <path id="Path_5" data-name="Path 5" d="M783.948,168.432v19.551H773.5v-16.1q-.123-1.875-2.734-1.919h-6.137q-2.491,0-2.37,1.834v16.19H751.68V168.432a4.857,4.857,0,0,1,.608-2.4,5.806,5.806,0,0,1,1.732-1.9,8.845,8.845,0,0,1,2.675-1.265,11.861,11.861,0,0,1,3.372-.459h15.558a11.8,11.8,0,0,1,3.495.48,8.385,8.385,0,0,1,2.613,1.287,5.712,5.712,0,0,1,1.64,1.919A5.034,5.034,0,0,1,783.948,168.432Z" transform="translate(-495.515 -128.199)" fill="#fff"/>
    <g id="Group_1" data-name="Group 1" transform="translate(228.286 20)">
      <path id="Path_6" data-name="Path 6" d="M653.91,103.829l-7.337,4.748,2.25-8.444-6.783-5.509,8.725-.471L653.91,86l3.143,8.154,8.726.471L659,100.133l2.249,8.444Z" transform="translate(-634.552 -86)" fill="#eeb41e"/>
      <path id="Path_7" data-name="Path 7" d="M610.181,125.366l-2.66-2.161,3.422-.184,1.35-.073V121.81H601.78v33.124h10.514V127.083Z" transform="translate(-601.78 -115.15)" fill="#fff"/>
    </g>
    <g id="Group_3" data-name="Group 3" transform="translate(143.359 65.422)">
      <path id="Path_8" data-name="Path 8" d="M150.439,330.22c3.331,0,5.289,2.009,5.289,4.588,0,2.507-1.958,4.516-5.289,4.516s-5.289-2.009-5.289-4.516C145.15,332.229,147.11,330.22,150.439,330.22Zm0,7.5a2.946,2.946,0,1,0-2.924-2.909A2.708,2.708,0,0,0,150.439,337.719Z" transform="translate(-145.15 -330.22)" fill="#eeb41e"/>
      <path id="Path_9" data-name="Path 9" d="M279.59,331.33h2.351l4.492,5.831h.03V331.33h2.215v8.691h-2.366l-4.475-5.819h-.03v5.819h-2.215V331.33Z" transform="translate(-254.586 -331.124)" fill="#eeb41e"/>
      <path id="Path_10" data-name="Path 10" d="M408.52,331.33h2.366v7.084h5.245v1.607H408.52Z" transform="translate(-359.537 -331.124)" fill="#eeb41e"/>
      <path id="Path_11" data-name="Path 11" d="M525.45,331.33h2.366v8.691H525.45Z" transform="translate(-454.72 -331.124)" fill="#eeb41e"/>
      <path id="Path_12" data-name="Path 12" d="M610.13,331.33h2.351l4.492,5.831H617V331.33h2.215v8.691h-2.366l-4.475-5.819h-.03v5.819h-2.215V331.33Z" transform="translate(-523.65 -331.124)" fill="#eeb41e"/>
      <path id="Path_13" data-name="Path 13" d="M730.95,331.33H739v1.607h-5.682V334.8h5.215v1.484h-5.215v2.13h5.8v1.607H730.95Z" transform="translate(-621.999 -331.124)" fill="#eeb41e"/>
    </g>
    <g id="Group_4" data-name="Group 4" transform="translate(267.354 70.819)">
      <path id="Path_14" data-name="Path 14" d="M811.84,372.63h1.283v1.017H811.84Z" transform="translate(-811.84 -370.14)" fill="#8c8989"/>
      <path id="Path_15" data-name="Path 15" d="M827.219,360.534c-.074-.383-.376-.588-.859-.588a.994.994,0,0,0-.989,1.11.963.963,0,0,0,.965,1.077.839.839,0,0,0,.924-.694h1.122c-.147.906-.924,1.4-2.036,1.4-1.276,0-2.135-.727-2.135-1.75,0-1.064.785-1.851,2.159-1.851,1,0,1.914.422,1.988,1.294Z" transform="translate(-821.909 -359.24)" fill="#8c8989"/>
      <path id="Path_16" data-name="Path 16" d="M852.734,359.24c1.334,0,2.193.714,2.193,1.8s-.859,1.8-2.193,1.8-2.183-.714-2.183-1.8S851.409,359.24,852.734,359.24Zm0,2.894a1.1,1.1,0,1,0-1.023-1.09A.965.965,0,0,0,852.734,362.134Z" transform="translate(-843.35 -359.24)" fill="#8c8989"/>
      <path id="Path_17" data-name="Path 17" d="M879.384,359.331h1.1v.463h.017a1.652,1.652,0,0,1,1.293-.554,1.323,1.323,0,0,1,1.235.569,1.641,1.641,0,0,1,1.276-.569c.9,0,1.546.337,1.546,1.222v2.286h-1.162v-1.936c0-.456-.048-.833-.712-.833s-.778.437-.778.865v1.9H882.03V360.83c0-.4.034-.852-.7-.852a.749.749,0,0,0-.785.787v1.983H879.38v-3.417Z" transform="translate(-866.819 -359.24)" fill="#8c8989"/>
    </g>
  </g>
</svg>
