<svg xmlns="http://www.w3.org/2000/svg" width="36" height="36" viewBox="0 0 36 36">
  <g id="pintrest" transform="translate(-3615 -2682)">
    <rect id="Rectangle_25" data-name="Rectangle 25" width="36" height="36" rx="18" transform="translate(3615 2682)" fill="#edb41e"/>
    <path id="Path_114" data-name="Path 114" d="M173.056.266c-6.3,0-9.472,4.494-9.472,8.24,0,2.269.862,4.287,2.714,5.039a.459.459,0,0,0,.665-.329c.062-.232.206-.816.271-1.06a.636.636,0,0,0-.191-.734,3.788,3.788,0,0,1-.875-2.586,6.262,6.262,0,0,1,6.525-6.317c3.554,0,5.514,2.163,5.514,5.055,0,3.8-1.69,7.008-4.2,7.008a2.043,2.043,0,0,1-2.094-2.538c.4-1.668,1.169-3.472,1.169-4.68A1.771,1.771,0,0,0,171.3,5.382c-1.419,0-2.555,1.462-2.555,3.416a5.063,5.063,0,0,0,.422,2.087s-1.449,6.118-1.7,7.188a14.706,14.706,0,0,0-.04,5.012.175.175,0,0,0,.314.076,14.019,14.019,0,0,0,2.393-4.317c.164-.584.932-3.626.932-3.626a3.806,3.806,0,0,0,3.238,1.645c4.26,0,7.151-3.864,7.151-9.04,0-3.912-3.33-7.556-8.39-7.556Zm0,0" transform="translate(3461.639 2688.681)"/>
  </g>
</svg>
